<svg xmlns="http://www.w3.org/2000/svg" viewBox="0 0 2790.86 909.6">
<defs>
<style>.cls-1{fill:white;}</style>
</defs>
<g id="Ebene_2" data-name="Ebene 2">
<g id="Layer_1" data-name="Layer 1">
<path class="cls-1" d="M0,847.68V781.36C.41,755.52,16.36,729,58.16,745a384.24,384.24,0,0,0,40,14.37q48.9,14.54,92.47,14.52,53,0,83.63-14.52t30.61-44.18A40.91,40.91,0,0,0,291,683.64Q277.09,671,255.31,661.55a404.73,404.73,0,0,0-47.65-17q-25.89-7.57-49.86-17-38.52-14.52-67.86-31.24T40.71,557.4a152.64,152.64,0,0,1-30.3-51.12C3.47,486.93,1.93,464,1.93,437.48c0-36.18,12.36-66.1,31.66-95.05,11.57-19.29,26.9-31.33,53.2-48s132-87.08,370.19-36.87l9.64,173.3c-25.24-14.72-61.93-35.41-90.75-42.78-60.6-16.73-137.77-16.73-157.07,2.56-28.94,19.29-20,52.91-12.4,61.33s17.45,15.68,29.66,21.78a291.65,291.65,0,0,0,40.71,16.41q22.41,7.26,44.5,14.83a580.61,580.61,0,0,1,72,30.29q32.19,16.43,55.23,38.51a151.29,151.29,0,0,1,35.34,51.75q12.31,29.68,12.31,70.69,0,57.45-24.93,98.16a199.67,199.67,0,0,1-66.28,66.26q-41.34,25.58-95.3,37.25a529.4,529.4,0,0,1-112,11.67q-89.43,0-167.77-23.07C14,875.87,3.31,875.46,0,847.68Z"/>
<path class="cls-1" d="M966.35,294.44c14.55,34.63,111.45,355.3,111.45,355.3s105.25-323.16,110.29-342.17c14.68-38.31,56.89-34,56.89-34h131.89L1174.76,866.92s-9.77,30.58-38.3,30.91-56.24-1.33-90.38,0-43.42-34.45-43.42-34.45L893.14,541.56,785.63,859.09s-7.31,37.21-47.51,39.27c-23,.22-53.46.28-78-.53-45.82-1.53-52.78-42.62-52.78-42.62L402.09,259.61,373.15,250s135.06,9.64,183.29,21.22c38.59,7.72,37.13,19.09,42.68,37.52s109.36,341,109.36,341L822.48,296c13.72-26.77,33-26.77,52.3-26.77h38.59C932.66,269.26,952,269.26,966.35,294.44Z"/>
<path class="cls-1" d="M1523.07,164.77q-27.35,26.11-74.61,26.11-43.51,0-69.32-26.11t-25.81-69.33q0-43.21,26.12-69.33t69-26.11q47.25,0,74.61,26.11t27.36,69.33Q1550.43,138.66,1523.07,164.77ZM1497,897.83h-92.85s-39.38,4.51-38.38-37.1,0-587.15,0-587.15h139.67s35,5.33,32.56,37.89c2,21.18.66,417.38.16,546.23C1540.41,896.3,1497,897.83,1497,897.83Z"/>
<path class="cls-1" d="M1779.33,350.05a311.55,311.55,0,0,1,21.14-24.56q13.68-14.61,60-39.48t97.31-24.87q107,0,174.4,74t67.47,199.59V825.16s-3.26,51.85,25.68,3.61c9.64,9.65-25.68,69.06-25.68,69.06s-84,1.52-125.65,0-46-40.12-46-40.12V554q0-57.19-33.89-92.33t-87.35-35.13q-58.46,0-93,38.24t-34.52,108.5V857.71c4.52,34.67-17,38.59-42.37,40.12h-87.42c-12.66-1.53-40.06.1-41.81-40.12,0,0-.21-511.28,0-549.86s43.61-34.27,43.61-34.27h83.81s41.94-4.32,44.18,34.26S1779.33,350.05,1779.33,350.05Z"/>
<path class="cls-1" d="M2309.14,897.83H2177.05L2389.32,578l-144.7-231.53c-67.53-86.82-9.65-77.17,19.29-77.17l59.72,1.24c65.69-1.24,75.34,18.05,102.1,59.74,11.82,16.19,69.66,128,69.66,128s50.15-79.44,96.51-150.39c28.94-48.24,53.67-34.27,77.18-38.59,18,0,54-1.26,86.82,0,19.84.77,48.23,0,19.29,48.23-12.48,22.85-171.62,262-171.62,262s145.36,221.78,177.78,269.3-28.46,49.05-28.46,49.05h-89.24s-33.16-1.53-56.92-32.94c-5.18-7.18-111.34-164.16-111.34-164.16L2386,862C2360.38,906,2331.44,896.3,2309.14,897.83Z"/>
</g></g></svg>